<svg width="13" height="13" viewBox="0 0 13 13" fill="none" xmlns="http://www.w3.org/2000/svg">
<path d="M11.9062 9.18187L11.3578 9.16826V9.18187H11.9062ZM11.9062 10.827H11.3578L11.3579 10.8292L11.9062 10.827ZM10.7108 11.9238L10.6515 12.469L10.6614 12.4699L10.7108 11.9238ZM5.97825 10.2402L6.27663 9.78012L6.27236 9.7774L5.97825 10.2402ZM2.68797 6.94997L3.15083 6.65585L3.14822 6.65181L2.68797 6.94997ZM1.00445 2.19552L0.45823 2.24488L0.459138 2.25343L1.00445 2.19552ZM2.09573 1.00005V0.451674L2.09521 0.451674L2.09573 1.00005ZM3.74086 1.00005V1.54846L3.74626 1.54841L3.74086 1.00005ZM4.83762 1.94327L5.38131 1.87156L5.3806 1.86652L4.83762 1.94327ZM5.22149 3.48421L4.70771 3.67593L4.70817 3.67716L5.22149 3.48421ZM4.97471 4.64129L5.36248 5.02906L5.36464 5.02688L4.97471 4.64129ZM4.27827 5.33773L3.89051 4.94997C3.71596 5.12452 3.67955 5.3942 3.80157 5.60879L4.27827 5.33773ZM7.56855 8.62801L7.29749 9.10471C7.51208 9.22673 7.78175 9.19032 7.95631 9.01577L7.56855 8.62801ZM8.26499 7.93156L7.8794 7.54163L7.87723 7.5438L8.26499 7.93156ZM9.42207 7.68479L9.22911 8.19811L9.23035 8.19857L9.42207 7.68479ZM10.963 8.06866L11.0396 7.52563L11.0347 7.52499L10.963 8.06866ZM11.3578 9.18187V10.827H12.4546V9.18187H11.3578ZM11.3579 10.8292C11.3582 10.9056 11.3425 10.9812 11.3119 11.0511L12.3168 11.4905C12.4086 11.2806 12.4555 11.0539 12.4546 10.8248L11.3579 10.8292ZM11.3119 11.0511C11.2813 11.1211 11.2365 11.1839 11.1802 11.2355L11.9216 12.0437C12.0904 11.8888 12.2251 11.7004 12.3168 11.4905L11.3119 11.0511ZM11.1802 11.2355C11.1239 11.2872 11.0575 11.3265 10.9852 11.3509L11.3365 12.3899C11.5535 12.3165 11.7528 12.1986 11.9216 12.0437L11.1802 11.2355ZM10.9852 11.3509C10.9128 11.3754 10.8362 11.3845 10.7601 11.3776L10.6614 12.4699C10.8896 12.4905 11.1195 12.4633 11.3365 12.3899L10.9852 11.3509ZM10.77 11.3786C9.16781 11.2045 7.6288 10.657 6.27662 9.78014L5.67987 10.7003C7.17598 11.6706 8.8788 12.2763 10.6515 12.4689L10.77 11.3786ZM6.27236 9.7774C5.01533 8.97863 3.94958 7.91289 3.15081 6.65586L2.22514 7.24407C3.11026 8.637 4.29122 9.81796 5.68414 10.7031L6.27236 9.7774ZM3.14822 6.65181C2.26828 5.29349 1.72067 3.747 1.54976 2.13761L0.459138 2.25343C0.648235 4.03412 1.25413 5.74522 2.22773 7.24812L3.14822 6.65181ZM1.5506 2.14617C1.54375 2.07034 1.55276 1.99392 1.57706 1.92178L0.537676 1.5717C0.464775 1.78815 0.437742 2.01741 0.458297 2.24487L1.5506 2.14617ZM1.57706 1.92178C1.60136 1.84963 1.64042 1.78333 1.69175 1.7271L0.881728 0.987677C0.727747 1.15636 0.610576 1.35526 0.537676 1.5717L1.57706 1.92178ZM1.69175 1.7271C1.74308 1.67087 1.80555 1.62595 1.87519 1.59519L1.43205 0.59194C1.22313 0.684222 1.03571 0.818995 0.881728 0.987677L1.69175 1.7271ZM1.87519 1.59519C1.94483 1.56443 2.02011 1.5485 2.09624 1.54843L2.09521 0.451674C1.86682 0.45189 1.64097 0.499659 1.43205 0.59194L1.87519 1.59519ZM2.09573 1.54843H3.74086V0.451674H2.09573V1.54843ZM3.74626 1.54841C3.87933 1.5471 4.00833 1.59422 4.10922 1.68099L4.82435 0.849439C4.52167 0.589134 4.13466 0.447772 3.73547 0.451701L3.74626 1.54841ZM4.10922 1.68099C4.21011 1.76775 4.27601 1.88825 4.29464 2.02001L5.3806 1.86652C5.32473 1.47123 5.12703 1.10974 4.82435 0.849439L4.10922 1.68099ZM4.29395 2.01497C4.36879 2.58245 4.5076 3.13965 4.70771 3.67593L5.73526 3.29249C5.56407 2.83371 5.44532 2.35704 5.38129 1.87156L4.29395 2.01497ZM4.70817 3.67716C4.74506 3.7753 4.75305 3.88196 4.73118 3.9845L5.80382 4.21326C5.86942 3.90565 5.84547 3.58567 5.7348 3.29126L4.70817 3.67716ZM4.73118 3.9845C4.70931 4.08703 4.65851 4.18115 4.58479 4.2557L5.36464 5.02688C5.5858 4.80323 5.73821 4.52087 5.80382 4.21326L4.73118 3.9845ZM4.58695 4.25353L3.89051 4.94997L4.66604 5.72549L5.36248 5.02905L4.58695 4.25353ZM3.80157 5.60879C4.63101 7.06749 5.83879 8.27527 7.29749 9.10471L7.83961 8.1513C6.55252 7.41945 5.48683 6.35376 4.75498 5.06667L3.80157 5.60879ZM7.95631 9.01577L8.65275 8.31933L7.87723 7.5438L7.18079 8.24024L7.95631 9.01577ZM8.65058 8.32149C8.72513 8.24777 8.81924 8.19697 8.92178 8.1751L8.69302 7.10246C8.38541 7.16807 8.10305 7.32048 7.8794 7.54164L8.65058 8.32149ZM8.92178 8.1751C9.02432 8.15323 9.13098 8.16121 9.22912 8.1981L9.61502 7.17148C9.3206 7.06081 9.00063 7.03686 8.69302 7.10246L8.92178 8.1751ZM9.23035 8.19857C9.76663 8.39868 10.3238 8.53748 10.8913 8.61233L11.0347 7.52499C10.5492 7.46096 10.0726 7.34221 9.61378 7.17102L9.23035 8.19857ZM10.8864 8.61166C11.0196 8.63045 11.1412 8.69754 11.2282 8.80016L12.065 8.09117C11.8041 7.78329 11.4392 7.58203 11.0396 7.52566L10.8864 8.61166ZM11.2282 8.80016C11.3151 8.90279 11.3614 9.0338 11.358 9.16827L12.4544 9.19547C12.4644 8.79206 12.3258 8.39905 12.065 8.09117L11.2282 8.80016Z" fill="white"/>
</svg>
