<svg width="15" height="15" viewBox="0 0 15 15" fill="none" xmlns="http://www.w3.org/2000/svg">
<path d="M14.7048 0.195196C14.4445 -0.0650655 14.0541 -0.0650655 13.7939 0.195196L10.3454 3.64367V1.30131C10.3454 0.910917 10.0851 0.650655 9.69476 0.650655C9.30436 0.650655 9.0441 0.910917 9.0441 1.30131V5.20524C9.0441 5.2703 9.0441 5.40043 9.10917 5.4655C9.17423 5.59563 9.30436 5.72576 9.43449 5.79083C9.49956 5.85589 9.62969 5.85589 9.69476 5.85589H13.5987C13.9891 5.85589 14.2493 5.59563 14.2493 5.20524C14.2493 4.81485 13.9891 4.55458 13.5987 4.55458H11.2563L14.7048 1.10611C14.9651 0.845851 14.9651 0.455458 14.7048 0.195196Z" fill="white"/>
<path d="M12.2974 14.9C12.2323 14.9 12.1672 14.9 12.1022 14.9C10.0201 14.6397 7.93799 13.924 6.18122 12.8179C4.55458 11.7769 3.12314 10.3454 2.0821 8.71877C0.910917 6.96201 0.195196 4.87991 0 2.79782C0 2.27729 0.130131 1.75677 0.455458 1.36637C0.780786 0.975982 1.23624 0.71572 1.75677 0.650655C1.82183 0.650655 1.8869 0.650655 1.95196 0.650655H3.90393C4.87991 0.650655 5.72576 1.36637 5.85589 2.34236C5.92096 2.92795 6.05109 3.51354 6.24628 4.03406C6.50655 4.74978 6.31135 5.53056 5.79083 6.11615L5.33537 6.57161C6.11615 7.74279 7.09214 8.78384 8.32838 9.56462L8.78384 9.10917C9.30436 8.58864 10.1502 8.39345 10.8659 8.65371C11.3865 8.8489 11.972 8.97904 12.5576 9.0441C13.5336 9.17423 14.2493 10.0201 14.2493 10.9961V12.948C14.2493 13.4686 14.0541 13.9891 13.6637 14.3144C13.2734 14.6397 12.8179 14.9 12.2974 14.9ZM3.90393 1.95196H1.95196C1.75677 1.95196 1.56157 2.0821 1.43144 2.21223C1.36637 2.34236 1.30131 2.47249 1.30131 2.66768C1.49651 4.55458 2.14716 6.37642 3.18821 8.00305C4.16419 9.49956 5.40043 10.8009 6.89694 11.7118C8.52358 12.7528 10.3454 13.4035 12.2323 13.5987C12.4926 13.5987 12.6227 13.5336 12.7528 13.4035C12.883 13.2734 12.948 13.1432 12.948 12.948V10.9961C12.948 10.6707 12.6878 10.4105 12.3624 10.3454C11.7118 10.2803 11.0611 10.0851 10.4105 9.82489C10.1502 9.75982 9.88995 9.75982 9.69476 9.95502L8.8489 10.8009C8.65371 10.9961 8.32838 11.0611 8.06812 10.931C6.31135 9.95502 4.87991 8.52358 3.90393 6.76681C3.83886 6.50655 3.90393 6.18122 4.09912 5.98602L4.94498 5.14017C5.07511 5.01004 5.14017 4.68471 5.07511 4.48952C4.81484 3.83886 4.68471 3.18821 4.55458 2.53755C4.55458 2.21223 4.22926 1.95196 3.90393 1.95196Z" fill="white"/>
</svg>
