<svg width="12" height="14" viewBox="0 0 12 14" fill="none" xmlns="http://www.w3.org/2000/svg">
<path fill-rule="evenodd" clip-rule="evenodd" d="M6 1.16668C4.72696 1.16668 3.50606 1.65834 2.60589 2.53352C1.70571 3.4087 1.2 4.59569 1.2 5.83338C1.2 7.64059 2.40944 9.39422 3.73557 10.7551C4.38637 11.423 5.0392 11.9698 5.53001 12.3498C5.71267 12.4912 5.87221 12.609 6 12.7008C6.12779 12.609 6.28733 12.4912 6.46999 12.3498C6.9608 11.9698 7.61363 11.423 8.26443 10.7551C9.59056 9.39422 10.8 7.64059 10.8 5.83338C10.8 4.59569 10.2943 3.4087 9.39411 2.53352C8.49394 1.65834 7.27304 1.16668 6 1.16668ZM6 13.4168C5.66718 13.9021 5.66703 13.902 5.66686 13.9019L5.66514 13.9008L5.66114 13.8982L5.64739 13.8892C5.63571 13.8814 5.61905 13.8704 5.59773 13.856C5.55512 13.8273 5.49388 13.7855 5.41667 13.7313C5.26233 13.6229 5.04382 13.4647 4.78249 13.2624C4.2608 12.8585 3.56363 12.2751 2.86443 11.5575C1.49056 10.1476 0 8.10953 0 5.83338C3.57628e-08 4.28627 0.632141 2.80253 1.75736 1.70856C2.88258 0.614586 4.4087 0 6 0C7.5913 0 9.11742 0.614586 10.2426 1.70856C11.3679 2.80253 12 4.28627 12 5.83338C12 8.10953 10.5094 10.1476 9.13557 11.5575C8.43637 12.2751 7.7392 12.8585 7.21751 13.2624C6.95618 13.4647 6.73767 13.6229 6.58333 13.7313C6.50612 13.7855 6.44488 13.8273 6.40227 13.856C6.38095 13.8704 6.36429 13.8814 6.35261 13.8892L6.33886 13.8982L6.33486 13.9008L6.33359 13.9016C6.33342 13.9017 6.33282 13.9021 6 13.4168ZM6 13.4168L6.33282 13.9021C6.13128 14.0328 5.86839 14.0326 5.66686 13.9019L6 13.4168Z" fill="#F8F8F8"/>
<path fill-rule="evenodd" clip-rule="evenodd" d="M6 4.6667C5.33726 4.6667 4.8 5.18904 4.8 5.83338C4.8 6.47771 5.33726 7.00005 6 7.00005C6.66274 7.00005 7.2 6.47771 7.2 5.83338C7.2 5.18904 6.66274 4.6667 6 4.6667ZM3.6 5.83338C3.6 4.5447 4.67452 3.50003 6 3.50003C7.32548 3.50003 8.4 4.5447 8.4 5.83338C8.4 7.12205 7.32548 8.16673 6 8.16673C4.67452 8.16673 3.6 7.12205 3.6 5.83338Z" fill="#F8F8F8"/>
</svg>
