<svg width="23" height="22" viewBox="0 0 23 22" fill="none" xmlns="http://www.w3.org/2000/svg">
<path d="M22.3959 20.878L17.0496 15.5317C18.4837 13.8829 19.352 11.7317 19.352 9.38049C19.352 4.20488 15.1423 0 9.97155 0C4.79594 0 0.591064 4.20976 0.591064 9.38049C0.591064 14.5512 4.80082 18.761 9.97155 18.761C12.3228 18.761 14.474 17.8927 16.1228 16.4585L21.4691 21.8049C21.5959 21.9317 21.7667 22 21.9325 22C22.0984 22 22.2691 21.9366 22.3959 21.8049C22.6496 21.5512 22.6496 21.1317 22.3959 20.878ZM1.90326 9.38049C1.90326 4.93171 5.52277 1.31707 9.96667 1.31707C14.4154 1.31707 18.0301 4.93659 18.0301 9.38049C18.0301 13.8244 14.4154 17.4488 9.96667 17.4488C5.52277 17.4488 1.90326 13.8293 1.90326 9.38049Z" fill="#2E2E2E"/>
</svg>
