<svg width="39" height="42" viewBox="0 0 39 42" fill="none" xmlns="http://www.w3.org/2000/svg">
<path d="M19.4999 22.5503C14.1367 22.5503 9.77345 26.9129 9.77345 32.2751C9.77345 37.6373 14.1367 42 19.4999 42C24.8631 42 29.2264 37.6374 29.2264 32.2752C29.2264 26.913 24.8631 22.5503 19.4999 22.5503ZM19.4999 40.5906C14.914 40.5906 11.1831 36.8603 11.1831 32.2752C11.1831 27.6901 14.914 23.9598 19.4999 23.9598C24.0858 23.9598 27.8167 27.6901 27.8167 32.2752C27.8167 36.8603 24.0858 40.5906 19.4999 40.5906Z" fill="white"/>
<path d="M25.2609 28.7702C24.9857 28.495 24.5394 28.495 24.2642 28.7702L17.9963 35.037L14.7356 31.7769C14.4604 31.5017 14.0141 31.5017 13.739 31.7769C13.4637 32.0522 13.4637 32.4983 13.739 32.7735L17.498 36.5319C17.6356 36.6695 17.816 36.7383 17.9964 36.7383C18.1767 36.7383 18.3571 36.6695 18.4947 36.5319L25.261 29.7668C25.5361 29.4916 25.5361 29.0453 25.2609 28.7702Z" fill="white"/>
<path d="M36.7914 0H2.20841C0.990695 0 0 0.990528 0 2.20804V33.7785C0 34.996 0.990695 35.9865 2.20841 35.9865H7.47103C7.86025 35.9865 8.17588 35.671 8.17588 35.2818C8.17588 34.8926 7.86034 34.5771 7.47103 34.5771H2.20841C1.76791 34.5771 1.40962 34.2188 1.40962 33.7784V2.20804C1.40962 1.76761 1.76791 1.40938 2.20841 1.40938H14.2843V11.9798C14.2843 12.2241 14.4108 12.4509 14.6186 12.5793C14.8262 12.7078 15.0857 12.7194 15.3043 12.6102L16.4927 12.0161L17.6809 12.6102C17.8793 12.7093 18.1129 12.7095 18.3112 12.6102L19.5002 12.0159L20.6886 12.61C20.8871 12.7093 21.1206 12.7093 21.3191 12.61L22.5074 12.0159L23.6957 12.61C23.7952 12.6597 23.9032 12.6844 24.0109 12.6844C24.1398 12.6844 24.2683 12.6491 24.3814 12.5792C24.5892 12.4507 24.7157 12.224 24.7157 11.9797V1.40938H36.7916C37.2321 1.40938 37.5904 1.76761 37.5904 2.20804V33.7785C37.5904 34.2189 37.2321 34.5772 36.7916 34.5772H31.5286C31.1393 34.5772 30.8237 34.8927 30.8237 35.2819C30.8237 35.6711 31.1393 35.9866 31.5286 35.9866H36.7916C38.0093 35.9866 39 34.9961 39 33.7786V2.20804C38.9998 0.990528 38.0091 0 36.7914 0ZM23.3059 10.8396L22.8224 10.5979C22.624 10.4987 22.3905 10.4987 22.1919 10.5979L21.0036 11.192L19.8153 10.5979C19.6168 10.4989 19.3833 10.4986 19.1849 10.5979L17.9959 11.192L16.8077 10.5979C16.7084 10.5483 16.6004 10.5235 16.4925 10.5235C16.3845 10.5235 16.2765 10.5483 16.1773 10.5979L15.6938 10.8397V1.40938H23.3058L23.3059 10.8396Z" fill="white"/>
<path d="M10.9766 9.97826C10.7013 9.70304 10.2551 9.70304 9.97988 9.97826L8.92765 11.0303V6.71809C8.92765 6.32893 8.61211 6.01336 8.2228 6.01336C7.83358 6.01336 7.51795 6.32885 7.51795 6.71809V11.0303L6.46572 9.97826C6.19046 9.70304 5.74422 9.70304 5.46904 9.97826C5.19377 10.2535 5.19377 10.6996 5.46904 10.9748L7.72446 13.2298C7.86205 13.3674 8.04247 13.4362 8.2228 13.4362C8.40314 13.4362 8.58355 13.3675 8.72114 13.2298L10.9766 10.9748C11.2518 10.6996 11.2518 10.2533 10.9766 9.97826Z" fill="white"/>
<path d="M10.4782 3.00668H5.96739C5.57817 3.00668 5.26254 3.32217 5.26254 3.71141C5.26254 4.10057 5.57809 4.41614 5.96739 4.41614H10.4782C10.8675 4.41614 11.1831 4.10065 11.1831 3.71141C11.1831 3.32225 10.8675 3.00668 10.4782 3.00668Z" fill="white"/>
</svg>
