<svg width="36" height="44" viewBox="0 0 36 44" fill="none" xmlns="http://www.w3.org/2000/svg">
<path d="M9.54909 8.81837C9.16865 8.81837 8.86013 9.12681 8.86013 9.50734C8.86013 10.3431 8.18019 11.023 7.34445 11.023C6.50871 11.023 5.82877 10.3431 5.82877 9.50734C5.82877 8.67159 6.50871 7.99166 7.34445 7.99166C7.7249 7.99166 8.03341 7.68323 8.03341 7.30269C8.03341 6.92216 7.72498 6.61373 7.34445 6.61373C5.74894 6.61373 4.45094 7.91182 4.45094 9.50725C4.45094 11.1027 5.74902 12.4008 7.34445 12.4008C8.93988 12.4008 10.238 11.1027 10.238 9.50725C10.2381 9.12681 9.92954 8.81837 9.54909 8.81837Z" fill="#CCD2D4"/>
<path d="M9.54909 16.9019C9.16865 16.9019 8.86013 17.2103 8.86013 17.5908C8.86013 18.4266 8.18019 19.1065 7.34445 19.1065C6.50871 19.1065 5.82877 18.4266 5.82877 17.5908C5.82877 16.7551 6.50871 16.0752 7.34445 16.0752C7.7249 16.0752 8.03341 15.7667 8.03341 15.3862C8.03341 15.0057 7.72498 14.6972 7.34445 14.6972C5.74894 14.6972 4.45094 15.9953 4.45094 17.5907C4.45094 19.1862 5.74902 20.4843 7.34445 20.4843C8.93988 20.4843 10.238 19.1862 10.238 17.5907C10.2381 17.2104 9.92954 16.9019 9.54909 16.9019Z" fill="#CCD2D4"/>
<path d="M17.6326 18.3716H12.4885C12.1081 18.3716 11.7996 18.6801 11.7996 19.0606C11.7996 19.4411 12.108 19.7496 12.4885 19.7496H17.6326C18.013 19.7496 18.3215 19.4411 18.3215 19.0606C18.3215 18.6801 18.0131 18.3716 17.6326 18.3716Z" fill="#CCD2D4"/>
<path d="M17.6326 15.4322H12.4885C12.1081 15.4322 11.7996 15.7406 11.7996 16.1211C11.7996 16.5017 12.108 16.8101 12.4885 16.8101H17.6326C18.013 16.8101 18.3215 16.5017 18.3215 16.1211C18.3215 15.7406 18.0131 15.4322 17.6326 15.4322Z" fill="#CCD2D4"/>
<path d="M16.1629 26.4551H12.4885C12.1081 26.4551 11.7996 26.7635 11.7996 27.144C11.7996 27.5246 12.108 27.833 12.4885 27.833H16.1629C16.5433 27.833 16.8518 27.5246 16.8518 27.144C16.8518 26.7635 16.5433 26.4551 16.1629 26.4551Z" fill="#CCD2D4"/>
<path d="M17.6326 23.5157H12.4885C12.1081 23.5157 11.7996 23.8241 11.7996 24.2047C11.7996 24.5852 12.108 24.8936 12.4885 24.8936H17.6326C18.013 24.8936 18.3215 24.5852 18.3215 24.2047C18.3215 23.8241 18.0131 23.5157 17.6326 23.5157Z" fill="#CCD2D4"/>
<path d="M24.2464 10.2881H12.4885C12.1081 10.2881 11.7996 10.5965 11.7996 10.9771C11.7996 11.3576 12.108 11.666 12.4885 11.666H24.2463C24.6268 11.666 24.9353 11.3576 24.9353 10.9771C24.9353 10.5965 24.6268 10.2881 24.2464 10.2881Z" fill="#CCD2D4"/>
<path d="M21.3069 7.34862H12.4885C12.1081 7.34862 11.7996 7.65704 11.7996 8.03758C11.7996 8.41811 12.108 8.72654 12.4885 8.72654H21.3069C21.6873 8.72654 21.9959 8.41811 21.9959 8.03758C21.9959 7.65704 21.6874 7.34862 21.3069 7.34862Z" fill="#CCD2D4"/>
<path d="M9.54909 24.9854C9.16865 24.9854 8.86013 25.2938 8.86013 25.6744C8.86013 26.5101 8.18019 27.1901 7.34445 27.1901C6.50871 27.1901 5.82877 26.5101 5.82877 25.6744C5.82877 24.8386 6.50871 24.1587 7.34445 24.1587C7.7249 24.1587 8.03341 23.8503 8.03341 23.4697C8.03341 23.0892 7.72498 22.7808 7.34445 22.7808C5.74894 22.7808 4.45094 24.0789 4.45094 25.6743C4.45094 27.2697 5.74902 28.5678 7.34445 28.5678C8.93988 28.5678 10.238 27.2697 10.238 25.6743C10.2381 25.2938 9.92954 24.9854 9.54909 24.9854Z" fill="#CCD2D4"/>
<path d="M27.1858 0H2.20041C1.01018 0 0.041748 0.968344 0.041748 2.15866V33.0229C0.041748 34.2133 1.01009 35.1816 2.20041 35.1816H14.6931C15.0736 35.1816 15.3821 34.8732 15.3821 34.4926C15.3821 34.1122 15.0737 33.8037 14.6931 33.8037H2.20041C1.76987 33.8037 1.41958 33.4534 1.41958 33.0229V2.15866C1.41958 1.72812 1.76987 1.37784 2.20041 1.37784H27.1858C27.6163 1.37784 27.9666 1.72812 27.9666 2.15866V24.9396C27.9666 25.32 28.2751 25.6285 28.6556 25.6285C29.036 25.6285 29.3445 25.3201 29.3445 24.9396V2.15866C29.3445 0.968344 28.3761 0 27.1858 0Z" fill="#CCD2D4"/>
<path d="M33.6903 27.9378C33.05 27.8739 32.41 28.0554 31.9035 28.44C31.5 27.763 30.812 27.2827 30.016 27.2029C29.3755 27.1392 28.7356 27.3207 28.2292 27.7051C27.8257 27.0281 27.1377 26.5478 26.3416 26.4681C25.8526 26.4193 25.3644 26.5135 24.9353 26.7318V17.9583C24.9353 17.246 24.6322 16.5631 24.1036 16.0849C23.5756 15.607 22.8639 15.3738 22.1511 15.4451C20.8793 15.5725 19.8831 16.7224 19.8831 18.0631V26.8588L17.8579 28.884C16.7817 29.9602 16.3473 31.4872 16.6959 32.9687L18.2334 39.5032C18.8564 42.151 21.1912 44.0002 23.9113 44.0002H30.1252C33.3415 44.0002 35.9582 41.3836 35.9582 38.1672V30.556C35.9583 29.2151 34.9621 28.0651 33.6903 27.9378ZM34.5804 38.167C34.5804 40.6235 32.5818 42.6221 30.1253 42.6221H23.9114C21.8339 42.6221 20.0505 41.2097 19.5747 39.1873L18.0372 32.6529C17.7986 31.6393 18.0958 30.5945 18.8322 29.8581L19.8831 28.8072V31.1858C19.8831 31.5662 20.1915 31.8748 20.572 31.8748C20.9526 31.8748 21.261 31.5663 21.261 31.1858V18.063C21.261 17.4215 21.7123 16.8738 22.2885 16.8162C22.6194 16.7829 22.9359 16.8862 23.1793 17.1066C23.4197 17.3241 23.5575 17.6346 23.5575 17.9584V30.0836C23.5575 30.4641 23.8659 30.7726 24.2465 30.7726C24.627 30.7726 24.9354 30.4642 24.9354 30.0836V28.9813C24.9354 28.6575 25.0732 28.347 25.3137 28.1295C25.5572 27.9092 25.8735 27.8058 26.2045 27.8391C26.7806 27.8968 27.2319 28.4446 27.2319 29.0861V30.8183C27.2319 31.1988 27.5404 31.5073 27.9209 31.5073C28.3014 31.5073 28.6099 31.1989 28.6099 30.8183V29.716C28.6099 29.3922 28.7476 29.0817 28.9881 28.8642C29.2316 28.6438 29.548 28.5405 29.8789 28.5738C30.455 28.6315 30.9064 29.1792 30.9064 29.8208V31.5531C30.9064 31.9335 31.2148 32.242 31.5953 32.242C31.9758 32.242 32.2843 31.9336 32.2843 31.5531V30.4508C32.2843 30.127 32.4221 29.8165 32.6625 29.599C32.9061 29.3787 33.2222 29.2752 33.5533 29.3087C34.1295 29.3662 34.5808 29.914 34.5808 30.5555L34.5804 38.167Z" fill="#CCD2D4"/>
</svg>
