<svg width="37" height="37" viewBox="0 0 37 37" fill="none" xmlns="http://www.w3.org/2000/svg">
<path d="M28.352 16.3368C28.352 15.1654 27.3991 14.2126 26.2278 14.2126H22.3239C23.2723 13.1465 23.8922 11.9325 24.012 10.8434C24.0851 10.1782 23.8796 9.51787 23.4479 9.03173C23.0534 8.58737 22.514 8.33972 21.9289 8.3343C21.9221 8.33422 21.9153 8.33423 21.9086 8.33423C21.3427 8.33423 20.8116 8.55218 20.4107 8.94935C20.0098 9.34659 19.7879 9.8758 19.7853 10.4406C19.7647 10.5642 19.5472 10.9905 19.015 11.4966C18.5792 11.9112 17.8265 12.481 16.7151 12.8418C16.2794 12.9833 15.8811 13.2438 15.5315 13.6161C15.348 13.8114 15.0732 14.0811 14.7331 14.3518C14.5662 14.2633 14.3763 14.2127 14.1746 14.2127H10.4669C9.80667 14.2127 9.26959 14.7498 9.26959 15.41V25.2973C9.26959 25.9575 9.80667 26.4946 10.4669 26.4946H14.1746C14.6247 26.4946 15.0172 26.2447 15.2217 25.8766H24.6829C25.6838 25.8766 26.4981 25.0624 26.4981 24.0614C26.4981 23.7249 26.4061 23.4095 26.2459 23.1389C26.7674 22.8197 27.1161 22.2446 27.1161 21.5896C27.1161 21.253 27.0241 20.9377 26.8638 20.6671C27.3853 20.3478 27.734 19.7727 27.734 19.1177C27.734 18.7389 27.6174 18.3868 27.4181 18.0954C27.9813 17.7129 28.352 17.0673 28.352 16.3368ZM26.2278 17.3023H25.9188C25.5989 17.3023 25.3394 17.5617 25.3394 17.8817C25.3394 18.2016 25.5988 18.461 25.9188 18.461C26.2808 18.461 26.5754 18.7556 26.5754 19.1176C26.5754 19.4797 26.2808 19.7742 25.9188 19.7742H25.3008C24.9809 19.7742 24.7215 20.0336 24.7215 20.3536C24.7215 20.6735 24.9808 20.933 25.3008 20.933C25.6629 20.933 25.9574 21.2275 25.9574 21.5896C25.9574 21.9516 25.6629 22.2462 25.3008 22.2462H24.6829C24.363 22.2462 24.1035 22.5055 24.1035 22.8255C24.1035 23.1454 24.3629 23.4049 24.6829 23.4049C25.0449 23.4049 25.3395 23.6994 25.3395 24.0615C25.3395 24.4235 25.0449 24.7181 24.6829 24.7181H15.3719V19.1179C15.3719 18.7979 15.1126 18.5385 14.7926 18.5385C14.4726 18.5385 14.2132 18.7979 14.2132 19.1179V25.2974C14.2132 25.3187 14.1959 25.336 14.1746 25.336H10.4669C10.4456 25.336 10.4283 25.3187 10.4283 25.2974V15.4098C10.4283 15.3885 10.4456 15.3712 10.4669 15.3712H14.1746C14.1959 15.3712 14.2132 15.3885 14.2132 15.4098V16.6458C14.2132 16.9657 14.4726 17.2251 14.7926 17.2251C15.1126 17.2251 15.3719 16.9658 15.3719 16.6458V15.4098C15.3719 15.3817 15.3696 15.3542 15.3676 15.3266C15.802 14.9903 16.1494 14.6504 16.376 14.4092C16.5905 14.1807 16.8249 14.0242 17.0728 13.9438C18.4365 13.5011 19.3542 12.7882 19.8838 12.2682C20.5476 11.6165 20.9439 10.937 20.9439 10.4506C20.9439 10.1936 21.0441 9.95276 21.2261 9.77238C21.4104 9.58977 21.6545 9.49329 21.9182 9.49293C22.2429 9.49597 22.458 9.66211 22.5813 9.801C22.7928 10.0391 22.8969 10.3815 22.8601 10.7168C22.7335 11.8679 21.8129 13.2908 20.5148 14.3417C20.3241 14.4961 20.2513 14.7539 20.3332 14.9853C20.415 15.2166 20.6339 15.3712 20.8793 15.3712H26.2276C26.7601 15.3712 27.1932 15.8043 27.1932 16.3368C27.1932 16.8692 26.7602 17.3023 26.2278 17.3023Z" fill="white"/>
<path d="M12.3208 22.8577C12.0009 22.8577 11.7384 23.1201 11.7384 23.44C11.7384 23.76 12.0009 24.0224 12.3208 24.0224C12.6407 24.0224 12.9032 23.76 12.9032 23.44C12.9032 23.1202 12.6408 22.8577 12.3208 22.8577Z" fill="white"/>
<path d="M35.9673 18.5L36.9625 15.8664C37.035 15.6748 37.0008 15.4593 36.8727 15.2993L35.1124 13.1022L35.2451 10.2899C35.2548 10.0854 35.1556 9.89083 34.9845 9.77845L32.6314 8.23276L31.8886 5.51717C31.8346 5.31959 31.6802 5.16523 31.4827 5.11125L28.7671 4.3685L27.2214 2.01546C27.109 1.84426 26.9145 1.74555 26.7099 1.75487L23.8977 1.88755L21.7006 0.127233C21.5407 -0.000821948 21.3251 -0.0350036 21.1335 0.0374066L18.4999 1.03265L15.8665 0.0374788C15.6748 -0.0350036 15.4593 -0.000821963 15.2994 0.127305L13.1023 1.88762L10.2901 1.75494C10.0845 1.74526 9.89093 1.84441 9.77856 2.01553L8.23295 4.36865L5.51735 5.11139C5.31978 5.16545 5.16542 5.31981 5.11144 5.51731L4.36869 8.23291L2.01558 9.77852C1.84438 9.89097 1.74531 10.0855 1.75499 10.29L1.88767 13.1022L0.127354 15.2994C-0.000700562 15.4593 -0.0348822 15.6748 0.0375279 15.8665L1.0327 18.5L0.0374556 21.1335C-0.0350267 21.3251 -0.000845103 21.5406 0.127282 21.7005L1.8876 23.8977L1.75492 26.7099C1.74523 26.9144 1.84438 27.1091 2.01551 27.2214L4.36862 28.7671L5.11136 31.4827C5.16542 31.6803 5.31978 31.8346 5.51728 31.8886L8.23287 32.6314L9.77849 34.9845C9.89093 35.1557 10.0858 35.2541 10.29 35.2451L13.1022 35.1124L15.2994 36.8727C15.4592 37.0008 15.6749 37.035 15.8664 36.9625L18.5 35.9673L21.1336 36.9625C21.2001 36.9876 21.2694 36.9999 21.3383 36.9999C21.4681 36.9999 21.5962 36.9563 21.7006 36.8727L23.8977 35.1124L26.7099 35.2451C26.9151 35.2542 27.109 35.1556 27.2214 34.9845L28.7671 32.6314L31.4827 31.8886C31.6803 31.8346 31.8347 31.6802 31.8886 31.4827L32.6314 28.7671L34.9845 27.2214C35.1557 27.109 35.2548 26.9144 35.2451 26.7099L35.1124 23.8977L36.8727 21.7005C37.0008 21.5407 37.035 21.3251 36.9625 21.1335L35.9673 18.5ZM34.8061 18.7048L35.7618 21.234L34.0713 23.3441C33.983 23.4541 33.938 23.5927 33.9447 23.7336L34.0721 26.4344L31.8123 27.9188C31.6945 27.9962 31.6087 28.1141 31.5715 28.2502L30.8582 30.8582L28.2502 31.5715C28.1141 31.6087 27.9963 31.6944 27.9188 31.8123L26.4344 34.0721L23.7336 33.9447C23.5926 33.9382 23.4542 33.983 23.3441 34.0713L21.234 35.7619L18.7048 34.8061C18.6388 34.7811 18.5694 34.7687 18.5 34.7687C18.4306 34.7687 18.3612 34.7812 18.2952 34.8061L15.766 35.7619L13.6559 34.0713C13.5458 33.983 13.4071 33.9382 13.2664 33.9447L10.5656 34.0721L9.0812 31.8123C9.0038 31.6945 8.88594 31.6087 8.74979 31.5715L6.1418 30.8582L5.42846 28.2502C5.39125 28.1141 5.30561 27.9963 5.18768 27.9188L2.92786 26.4344L3.05534 23.7336C3.06198 23.5926 3.01696 23.4541 2.92873 23.3441L1.23815 21.234L2.194 18.7048C2.24387 18.5728 2.24387 18.4271 2.194 18.2952L1.23815 15.766L2.92873 13.6559C3.01696 13.5458 3.06198 13.4073 3.05534 13.2664L2.92786 10.5656L5.18768 9.08116C5.30554 9.00377 5.39125 8.8859 5.42846 8.74975L6.1418 6.14176L8.74979 5.42842C8.88587 5.39121 9.00366 5.30557 9.0812 5.18763L10.5656 2.92782L13.2664 3.05529C13.4072 3.06187 13.5458 3.01692 13.6559 2.92868L15.766 1.2381L18.2952 2.19396C18.4272 2.24382 18.5728 2.24382 18.7048 2.19396L21.234 1.2381L23.3441 2.92868C23.4542 3.01699 23.5928 3.06194 23.7336 3.05529L26.4344 2.92782L27.9188 5.18763C27.9962 5.3055 28.1141 5.39121 28.2502 5.42842L30.8582 6.14176L31.5715 8.74975C31.6087 8.88583 31.6944 9.00362 31.8123 9.08116L34.0721 10.5656L33.9447 13.2664C33.938 13.4073 33.983 13.5458 34.0713 13.6559L35.7618 15.766L34.806 18.2952C34.7562 18.4272 34.7562 18.5728 34.8061 18.7048Z" fill="white"/>
<path d="M29.3859 8.4962C29.2418 8.33924 29.0922 8.18315 28.9413 8.03226C28.7903 7.88137 28.6343 7.73178 28.4773 7.58761C28.2417 7.37124 27.8752 7.38685 27.6588 7.62258C27.4424 7.85824 27.458 8.22477 27.6938 8.44114C27.8385 8.57411 27.9826 8.71213 28.1219 8.85146C28.2612 8.99072 28.3993 9.13489 28.5323 9.27971C28.6466 9.40415 28.8027 9.46724 28.9593 9.46724C29.0992 9.46724 29.2397 9.4168 29.3509 9.31468C29.5866 9.09839 29.6023 8.73186 29.3859 8.4962Z" fill="white"/>
<path d="M26.42 6.00672C23.6262 4.22682 20.2625 3.4358 16.949 3.77884C13.5868 4.12716 10.4165 5.63766 8.02192 8.03218C5.38662 10.6675 3.85227 14.1683 3.70153 17.8898C3.55172 21.5894 4.77706 25.1813 7.15192 28.0037C7.26646 28.1398 7.43036 28.21 7.59556 28.21C7.72722 28.21 7.85962 28.1653 7.96823 28.074C8.21299 27.8679 8.2445 27.5025 8.03854 27.2577C5.85027 24.657 4.7212 21.3468 4.85922 17.9368C4.99812 14.5069 6.41221 11.2804 8.84113 8.85153C11.0481 6.64447 13.97 5.25227 17.0683 4.93134C20.1233 4.61481 23.2232 5.3439 25.7974 6.9839C26.0673 7.15582 26.4253 7.07647 26.5972 6.80663C26.7692 6.53672 26.6898 6.17864 26.42 6.00672Z" fill="white"/>
<path d="M30.9669 10.5535C30.795 10.2836 30.4367 10.2043 30.167 10.3762C29.8971 10.5481 29.8178 10.9062 29.9897 11.176C31.6297 13.7503 32.3586 16.8503 32.0423 19.9051C31.7213 23.0034 30.3291 25.9252 28.1221 28.1324C25.6932 30.5612 22.4667 31.9754 19.0369 32.1143C15.6275 32.2529 12.3167 31.1233 9.71597 28.9351C9.4712 28.729 9.10575 28.7606 8.89973 29.0054C8.6937 29.2502 8.7252 29.6156 8.97004 29.8216C11.6382 32.0666 14.9934 33.2844 18.4777 33.2843C18.6793 33.2843 18.8816 33.2802 19.084 33.272C22.8054 33.1214 26.3062 31.587 28.9416 28.9517C31.3361 26.5571 32.8467 23.3867 33.1949 20.0246C33.538 16.7108 32.7468 13.3472 30.9669 10.5535Z" fill="white"/>
</svg>
