<svg width="11" height="18" viewBox="0 0 11 18" fill="none" xmlns="http://www.w3.org/2000/svg">
<path d="M10.5513 2.29113C10.9489 1.90777 10.9604 1.27471 10.577 0.877153C10.1937 0.479594 9.5606 0.468084 9.16304 0.851445L10.5513 2.29113ZM1.85718 9.28557L1.16304 8.56573C0.967589 8.7542 0.857178 9.01405 0.857178 9.28557C0.857178 9.5571 0.967589 9.81695 1.16304 10.0054L1.85718 9.28557ZM9.16304 17.7197C9.5606 18.1031 10.1937 18.0916 10.577 17.694C10.9604 17.2964 10.9489 16.6634 10.5513 16.28L9.16304 17.7197ZM9.16304 0.851445L1.16304 8.56573L2.55131 10.0054L10.5513 2.29113L9.16304 0.851445ZM1.16304 10.0054L9.16304 17.7197L10.5513 16.28L2.55131 8.56573L1.16304 10.0054Z" fill="#2E2E2E"/>
</svg>
